# xmcd
#
# Track frame offsets:
#	150
#	11400
#	23550
#	33939
#	45703
#	59320
#	70786
#	85389
#	95732
#	106836
#	115525
#	125975
#	135407
#	151273
#	162160
#
# Disc length: 2345 seconds
#
# Revision: 1
# Processed by: cddbd v1.5.2PL0 Copyright (c) Steve Scherf et al.
# Submitted via: audiograbber 1.83.01
#
DISCID=b709270f
DTITLE=Frank McCloud and The Rebels - Country Meets Rockabilly
DYEAR=2009
DGENRE=Rockabilly
TTITLE0=Get Rhythm
TTITLE1=Rock'n'Roll Ruby
TTITLE2=Gamblin' Man
TTITLE3=Little Ole Wine Drinker Me
TTITLE4=Kaw-Liga
TTITLE5=Red Cadillac And A Black Moustache
TTITLE6=Honey Don't
TTITLE7=Blue Moon Of Kentucky
TTITLE8=Flaming Star
TTITLE9=Honky Tonk Blues
TTITLE10=Cotton Fields
TTITLE11=Baby Let's Play House
TTITLE12=Medley: Folsom Prison Blues-Hey, Porter-I Walk The Line
TTITLE13=Don't Take Your Guns To Town
TTITLE14=That's Alright Mama
EXTD=
EXTT0=
EXTT1=
EXTT2=
EXTT3=
EXTT4=
EXTT5=
EXTT6=
EXTT7=
EXTT8=
EXTT9=
EXTT10=
EXTT11=
EXTT12=
EXTT13=
EXTT14=
PLAYORDER=
